HIERARCHY
ROOT Hips
{
	OFFSET 0.000000 100.481300 0.000000
	CHANNELS 6 Xposition Yposition Zposition Xrotation Yrotation Zrotation
	JOINT Spine
	{
		OFFSET -0.279200 12.230698 -2.892100
		CHANNELS 3 Xrotation Yrotation Zrotation
		JOINT Spine1
		{
			OFFSET -0.325700 14.269203 -3.374200
			CHANNELS 3 Xrotation Yrotation Zrotation
			JOINT Spine2
			{
				OFFSET -0.372300 16.307602 -0.352600
				CHANNELS 3 Xrotation Yrotation Zrotation
				JOINT Neck
				{
					OFFSET -0.418800 17.814194 8.416900
					CHANNELS 3 Xrotation Yrotation Zrotation
					JOINT Head
					{
						OFFSET 0.000000 7.031097 3.806800
						CHANNELS 3 Xrotation Yrotation Zrotation
						JOINT HeadTop_End
						{
							OFFSET 0.000000 24.646606 12.978600
							CHANNELS 3 Xrotation Yrotation Zrotation
							End Site
							{
								OFFSET 0.000000 27.854965 0.000000
							}
						}
					}
				}
				JOINT LeftShoulder
				{
					OFFSET 16.952999 14.495407 -7.737500
					CHANNELS 3 Xrotation Yrotation Zrotation
					JOINT LeftArm
					{
						OFFSET 9.308998 -2.777710 0.208600
						CHANNELS 3 Xrotation Yrotation Zrotation
						JOINT LeftForeArm
						{
							OFFSET 29.972298 0.000000 0.000000
							CHANNELS 3 Xrotation Yrotation Zrotation
							JOINT LeftHand
							{
								OFFSET 26.026505 0.000000 0.000000
								CHANNELS 3 Xrotation Yrotation Zrotation
								JOINT LeftHandThumb1
								{
									OFFSET 12.240501 -7.147949 9.207150
									CHANNELS 3 Xrotation Yrotation Zrotation
									JOINT LeftHandThumb2
									{
										OFFSET 4.138618 -2.389435 2.389433
										CHANNELS 3 Xrotation Yrotation Zrotation
										JOINT LeftHandThumb3
										{
											OFFSET 2.726913 -1.574387 1.574386
											CHANNELS 3 Xrotation Yrotation Zrotation
											JOINT LeftHandThumb4
											{
												OFFSET 3.941010 -2.275345 2.275342
												CHANNELS 3 Xrotation Yrotation Zrotation
												End Site
												{
													OFFSET -0.005798 5.087799 0.009903
												}
											}
										}
									}
								}
								JOINT LeftHandIndex1
								{
									OFFSET 24.424698 -1.985611 5.953459
									CHANNELS 3 Xrotation Yrotation Zrotation
									JOINT LeftHandIndex2
									{
										OFFSET 6.426697 0.000000 0.000000
										CHANNELS 3 Xrotation Yrotation Zrotation
										JOINT LeftHandIndex3
										{
											OFFSET 5.337898 0.000000 0.000000
											CHANNELS 3 Xrotation Yrotation Zrotation
											JOINT LeftHandIndex4
											{
												OFFSET 4.409401 0.000000 0.000000
												CHANNELS 3 Xrotation Yrotation Zrotation
												End Site
												{
													OFFSET 0.000000 4.409363 0.014373
												}
											}
										}
									}
								}
								JOINT LeftHandMiddle1
								{
									OFFSET 23.810104 0.000000 0.000000
									CHANNELS 3 Xrotation Yrotation Zrotation
									JOINT LeftHandMiddle2
									{
										OFFSET 7.176498 0.000000 0.000000
										CHANNELS 3 Xrotation Yrotation Zrotation
										JOINT LeftHandMiddle3
										{
											OFFSET 6.774902 0.000000 0.000000
											CHANNELS 3 Xrotation Yrotation Zrotation
											JOINT LeftHandMiddle4
											{
												OFFSET 5.403328 0.000000 0.000000
												CHANNELS 3 Xrotation Yrotation Zrotation
												End Site
												{
													OFFSET -0.027702 5.403244 0.017414
												}
											}
										}
									}
								}
								JOINT LeftHandRing1
								{
									OFFSET 22.908401 -0.839279 -6.020567
									CHANNELS 3 Xrotation Yrotation Zrotation
									JOINT LeftHandRing2
									{
										OFFSET 6.337502 0.000000 0.000000
										CHANNELS 3 Xrotation Yrotation Zrotation
										JOINT LeftHandRing3
										{
											OFFSET 5.779297 0.000000 0.000000
											CHANNELS 3 Xrotation Yrotation Zrotation
											JOINT LeftHandRing4
											{
												OFFSET 4.965698 0.000000 0.000000
												CHANNELS 3 Xrotation Yrotation Zrotation
												End Site
												{
													OFFSET 0.000000 4.965668 0.016186
												}
											}
										}
									}
								}
								JOINT LeftHandPinky1
								{
									OFFSET 20.037003 -1.530319 -10.950146
									CHANNELS 3 Xrotation Yrotation Zrotation
									JOINT LeftHandPinky2
									{
										OFFSET 5.254700 0.000000 0.000000
										CHANNELS 3 Xrotation Yrotation Zrotation
										JOINT LeftHandPinky3
										{
											OFFSET 4.810204 0.000000 0.000000
											CHANNELS 3 Xrotation Yrotation Zrotation
											JOINT LeftHandPinky4
											{
												OFFSET 3.647202 0.000000 0.000000
												CHANNELS 3 Xrotation Yrotation Zrotation
												End Site
												{
													OFFSET 0.000000 3.647186 0.011889
												}
											}
										}
									}
								}
							}
						}
					}
				}
				JOINT RightShoulder
				{
					OFFSET -15.141001 14.495407 -7.737500
					CHANNELS 3 Xrotation Yrotation Zrotation
					JOINT RightArm
					{
						OFFSET -9.308998 -2.777710 0.208500
						CHANNELS 3 Xrotation Yrotation Zrotation
						JOINT RightForeArm
						{
							OFFSET -29.972300 0.000000 0.000000
							CHANNELS 3 Xrotation Yrotation Zrotation
							JOINT RightHand
							{
								OFFSET -26.026505 0.000000 0.000000
								CHANNELS 3 Xrotation Yrotation Zrotation
								JOINT RightHandThumb1
								{
									OFFSET -12.240601 -7.148026 9.207092
									CHANNELS 3 Xrotation Yrotation Zrotation
									JOINT RightHandThumb2
									{
										OFFSET -4.138618 -2.389435 2.389433
										CHANNELS 3 Xrotation Yrotation Zrotation
										JOINT RightHandThumb3
										{
											OFFSET -2.726974 -1.574417 1.574421
											CHANNELS 3 Xrotation Yrotation Zrotation
											JOINT RightHandThumb4
											{
												OFFSET -3.941010 -2.275345 2.275343
												CHANNELS 3 Xrotation Yrotation Zrotation
												End Site
												{
													OFFSET 0.005814 5.087799 0.009927
												}
											}
										}
									}
								}
								JOINT RightHandIndex1
								{
									OFFSET -24.424698 -1.985657 5.953444
									CHANNELS 3 Xrotation Yrotation Zrotation
									JOINT RightHandIndex2
									{
										OFFSET -6.426697 0.000000 0.000000
										CHANNELS 3 Xrotation Yrotation Zrotation
										JOINT RightHandIndex3
										{
											OFFSET -5.337898 0.000000 0.000000
											CHANNELS 3 Xrotation Yrotation Zrotation
											JOINT RightHandIndex4
											{
												OFFSET -4.409401 0.000000 0.000000
												CHANNELS 3 Xrotation Yrotation Zrotation
												End Site
												{
													OFFSET 0.000000 4.409363 0.014408
												}
											}
										}
									}
								}
								JOINT RightHandMiddle1
								{
									OFFSET -23.810097 0.000000 0.000000
									CHANNELS 3 Xrotation Yrotation Zrotation
									JOINT RightHandMiddle2
									{
										OFFSET -7.176498 0.000000 0.000000
										CHANNELS 3 Xrotation Yrotation Zrotation
										JOINT RightHandMiddle3
										{
											OFFSET -6.774902 0.000000 0.000000
											CHANNELS 3 Xrotation Yrotation Zrotation
											JOINT RightHandMiddle4
											{
												OFFSET -5.403328 0.000000 0.000000
												CHANNELS 3 Xrotation Yrotation Zrotation
												End Site
												{
													OFFSET 0.027702 5.403244 0.017457
												}
											}
										}
									}
								}
								JOINT RightHandRing1
								{
									OFFSET -22.908302 -0.839325 -6.020576
									CHANNELS 3 Xrotation Yrotation Zrotation
									JOINT RightHandRing2
									{
										OFFSET -6.337502 0.000000 0.000000
										CHANNELS 3 Xrotation Yrotation Zrotation
										JOINT RightHandRing3
										{
											OFFSET -5.779297 0.000000 0.000000
											CHANNELS 3 Xrotation Yrotation Zrotation
											JOINT RightHandRing4
											{
												OFFSET -4.965698 0.000000 0.000000
												CHANNELS 3 Xrotation Yrotation Zrotation
												End Site
												{
													OFFSET 0.000000 4.965668 0.016226
												}
											}
										}
									}
								}
								JOINT RightHandPinky1
								{
									OFFSET -20.037003 -1.530334 -10.950259
									CHANNELS 3 Xrotation Yrotation Zrotation
									JOINT RightHandPinky2
									{
										OFFSET -5.254700 0.000000 0.000000
										CHANNELS 3 Xrotation Yrotation Zrotation
										JOINT RightHandPinky3
										{
											OFFSET -4.810204 0.000000 0.000000
											CHANNELS 3 Xrotation Yrotation Zrotation
											JOINT RightHandPinky4
											{
												OFFSET -3.647202 0.000000 0.000000
												CHANNELS 3 Xrotation Yrotation Zrotation
												End Site
												{
													OFFSET 0.000000 3.647186 0.011917
												}
											}
										}
									}
								}
							}
						}
					}
				}
			}
		}
	}
	JOINT LeftUpLeg
	{
		OFFSET 15.427100 -6.655098 0.678600
		CHANNELS 3 Xrotation Yrotation Zrotation
		JOINT LeftLeg
		{
			OFFSET 4.081073 -39.591068 13.024000
			CHANNELS 3 Xrotation Yrotation Zrotation
			JOINT LeftFoot
			{
				OFFSET -4.081074 -37.707932 -15.979700
				CHANNELS 3 Xrotation Yrotation Zrotation
				JOINT LeftToeBase
				{
					OFFSET 5.346399 -15.068900 20.645000
					CHANNELS 3 Xrotation Yrotation Zrotation
					JOINT LeftToe_End
					{
						OFFSET 2.754700 0.931300 11.300900
						CHANNELS 3 Xrotation Yrotation Zrotation
						End Site
						{
							OFFSET 0.000000 11.669021 0.000000
						}
					}
				}
			}
		}
	}
	JOINT RightUpLeg
	{
		OFFSET -15.569500 -6.655098 0.678600
		CHANNELS 3 Xrotation Yrotation Zrotation
		JOINT RightLeg
		{
			OFFSET -4.081825 -39.591045 13.023800
			CHANNELS 3 Xrotation Yrotation Zrotation
			JOINT RightFoot
			{
				OFFSET 4.081824 -37.707954 -15.979600
				CHANNELS 3 Xrotation Yrotation Zrotation
				JOINT RightToeBase
				{
					OFFSET -5.346400 -15.068900 20.645000
					CHANNELS 3 Xrotation Yrotation Zrotation
					JOINT RightToe_End
					{
						OFFSET -2.754700 0.931300 11.300900
						CHANNELS 3 Xrotation Yrotation Zrotation
						End Site
						{
							OFFSET 0.000000 11.669021 0.000000
						}
					}
				}
			}
		}
	}
}
MOTION
Frames: 4
Frame Time: 0.033333
-2.526859 27.441437 1.674431 -43.449699 -37.982136 -26.486367 59.050394 9.262976 -0.697463 10.734625 0.744710 -4.521334 17.520050 -0.085156 -4.562566 -10.626355 7.119766 2.460951 -15.542323 20.386161 10.545780 -0.000002 0.000000 0.000003 -37.559043 -4.830605 1.310666 -73.285901 -19.463804 -69.165412 -0.000016 -49.482644 -0.000013 -122.217520 3.139998 22.355317 4.709228 9.560377 3.111989 19.473192 -1.474908 7.636922 -4.536180 -9.613113 1.492978 0.000002 0.000003 0.000000 -0.212816 3.933723 -36.747125 2.942131 5.078893 -60.144604 0.513676 2.400828 -24.150492 0.000002 -0.000000 -0.000001 0.405922 5.507064 -52.453165 3.387145 5.308618 -65.057456 0.282014 1.797464 -17.832383 -0.000003 -0.000000 0.000003 -0.074375 5.736802 -61.061413 4.055021 5.569513 -72.094921 0.582669 2.548979 -25.747996 0.000002 -0.000002 0.000003 -6.565578 4.545129 -72.425236 3.299625 5.267221 -64.107814 0.175356 1.424020 -14.038889 -0.000003 -0.000001 -0.000001 -42.139812 -9.769763 -7.575439 -51.815663 45.272136 94.913873 0.000006 103.657471 -0.000016 -37.420069 -24.461423 -24.583565 8.377113 -4.904130 11.022015 21.620228 -18.183895 -18.379235 -0.702903 -49.821206 -32.535166 -0.000001 0.000000 0.000001 -0.920035 1.683590 12.435001 0.748123 -2.533463 32.898279 0.615638 -2.316063 29.767819 -0.000000 -0.000000 -0.000001 3.413065 -7.186245 51.650259 6.296811 -4.359593 110.634687 0.248718 -1.503074 18.790276 0.000000 -0.000000 0.000000 -3.349041 -2.600427 57.010578 5.440876 -4.590905 99.698140 1.689415 -3.590700 50.382248 0.000000 0.000001 -0.000001 -3.996445 -3.303932 64.593864 4.058835 -4.618671 82.610523 2.315541 -4.026804 59.787207 -0.000001 0.000000 -0.000000 -84.992832 -23.299814 21.503215 107.609835 -10.564339 1.250658 15.073379 -3.723105 -17.956146 1.364395 -0.002217 0.302042 0.000000 0.000001 0.000000 34.654980 8.793976 -103.249524 23.919673 58.377661 113.518898 -28.693386 17.361784 -12.653646 -30.134299 -0.000032 -0.000003 0.000001 0.000001 0.000000 
-2.520370 27.424721 1.678768 -43.476032 -37.888658 -26.541538 59.073186 9.270973 -0.878472 10.911277 0.738325 -4.356841 17.691802 -0.052036 -4.396612 -11.639877 6.881656 2.806626 -15.257292 20.310932 10.292763 0.000000 -0.000000 -0.000002 -37.596179 -4.464922 1.550580 -73.296618 -19.352284 -69.717298 0.000002 -49.948180 0.000002 -122.493979 2.894310 21.875846 4.709230 9.560369 3.111989 19.473192 -1.474906 7.636922 -4.536181 -9.613114 1.492976 0.000001 0.000003 -0.000003 0.069828 4.349481 -37.391560 2.949250 5.082960 -60.225050 0.516162 2.406342 -24.209592 0.000000 0.000003 0.000002 -10.508060 -2.613923 -53.938779 3.438423 5.332077 -65.610326 0.304143 1.864768 -18.524445 0.000003 -0.000001 -0.000002 0.092697 5.830387 -61.083584 4.074191 5.575637 -72.292170 0.590752 2.565648 -25.929242 0.000001 -0.000003 -0.000000 -6.352687 4.563250 -72.179267 3.283810 5.259525 -63.935304 0.171024 1.406642 -13.864139 -0.000002 0.000000 -0.000003 -42.549036 -10.018321 -9.131084 -52.612766 45.358897 96.527655 -0.000048 103.371450 0.000033 -37.507133 -23.808945 -24.360662 10.237269 -6.545458 11.857191 19.349284 -19.635141 -18.286433 0.948045 -49.753461 -30.974898 -0.000001 -0.000001 0.000004 -0.485113 0.549123 9.555547 0.745655 -2.529702 32.842917 0.615729 -2.316181 29.769516 -0.000000 -0.000000 -0.000001 3.984343 -7.408182 55.840748 6.267981 -4.370310 110.255905 0.248715 -1.503072 18.790260 -0.000000 -0.000000 0.000001 -3.498038 -2.620276 57.843643 5.447123 -4.589827 99.776325 1.689400 -3.590714 50.382248 0.000001 -0.000001 0.000003 -4.095606 -3.289847 64.821815 4.195533 -4.634282 84.305011 2.435344 -4.094026 61.478970 0.000000 0.000000 0.000001 -85.075375 -23.330787 21.433506 107.613155 -10.565099 1.239871 15.182378 -3.741166 -17.860461 1.338269 -0.002234 0.303748 0.000000 0.000002 0.000000 34.769669 8.742349 -103.078503 23.964750 58.390324 113.446109 -28.795302 17.373776 -12.664480 -30.134409 -0.000011 -0.000002 0.000001 -0.000001 -0.000000 
-2.514240 27.454536 1.626850 -43.432500 -37.834255 -26.387517 59.137745 9.289432 -0.913809 10.914343 0.740267 -4.390128 17.695108 -0.057557 -4.429314 -12.487808 6.655055 2.991324 -15.395904 20.005853 10.021307 0.000003 -0.000001 -0.000001 -37.607336 -4.277704 1.557894 -73.060163 -19.795533 -69.699731 -0.000011 -49.660021 -0.000016 -123.527318 2.669007 20.976150 4.709228 9.560378 3.111989 19.473190 -1.474908 7.636921 -4.536181 -9.613113 1.492979 -0.000001 -0.000001 -0.000000 0.155595 4.470426 -37.555382 2.950877 5.083887 -60.243327 0.516778 2.407711 -24.224231 -0.000001 -0.000000 0.000004 -10.771374 -2.715522 -54.227037 3.425854 5.326392 -65.475129 0.300148 1.852841 -18.401774 -0.000002 0.000002 -0.000002 -0.121883 5.679706 -60.638228 4.120920 5.590275 -72.772592 0.612864 2.610605 -26.418846 -0.000001 -0.000000 0.000001 -6.430605 4.415251 -71.584986 3.292865 5.263941 -64.034232 0.173459 1.416482 -13.963092 0.000001 0.000002 0.000001 -42.603192 -10.214464 -9.448255 -52.571095 45.285636 96.488088 0.000088 103.153649 -0.000069 -37.334224 -23.436254 -23.819877 10.326070 -5.206255 12.357522 20.197716 -19.060801 -18.181395 0.599303 -49.783398 -31.320915 -0.000001 -0.000001 0.000002 -0.458920 0.468542 9.348631 0.745538 -2.529513 32.840311 0.615722 -2.316182 29.769509 -0.000000 0.000000 -0.000002 4.045759 -7.465902 55.515050 6.269538 -4.369745 110.276232 0.248730 -1.503055 18.790218 0.000000 -0.000000 0.000000 -3.506321 -2.664799 58.198095 5.457006 -4.588125 99.899897 1.689411 -3.590684 50.382238 0.000000 0.000001 -0.000001 -4.120465 -3.319136 65.101443 4.177890 -4.632488 84.086671 2.419810 -4.085573 61.261196 -0.000000 -0.000001 0.000001 -85.021983 -23.160225 21.521672 107.438575 -10.626088 1.137292 15.318282 -3.765941 -17.722003 1.220931 -0.003352 0.371324 0.000000 -0.000001 0.000000 34.842260 8.707959 -103.334581 23.985551 58.330601 113.416241 -28.725190 17.319543 -12.467692 -29.968148 0.000019 0.000003 0.000000 0.000000 -0.000000 
-2.579872 27.516373 1.535236 -43.253822 -37.827063 -25.960934 59.139849 9.224431 -1.012036 10.922651 0.736214 -4.403425 17.702834 -0.064102 -4.441542 -13.641560 6.407060 3.204907 -15.423175 19.735634 9.800151 0.000001 0.000001 0.000001 -37.587825 -4.607067 1.563812 -72.815472 -20.346529 -68.896706 0.000029 -49.363932 0.000026 -124.749498 2.705169 21.274340 4.709229 9.560361 3.111989 19.473192 -1.474908 7.636921 -4.536182 -9.613114 1.492976 -0.000000 0.000002 -0.000000 0.271721 4.646590 -38.085111 2.960543 5.089382 -60.352310 0.521163 2.417444 -24.328669 -0.000002 0.000000 -0.000001 -10.872409 -2.646154 -54.626811 3.418886 5.323223 -65.400072 0.297915 1.846104 -18.332270 -0.000000 -0.000000 0.000001 -0.201041 5.622036 -60.460486 4.157087 5.601303 -73.143342 0.629956 2.644675 -26.791772 -0.000000 0.000000 -0.000000 -6.432110 4.392725 -71.478367 3.293262 5.264127 -64.038344 0.173562 1.416892 -13.967178 0.000001 0.000000 -0.000000 -42.714357 -10.341442 -9.955872 -52.401867 45.115708 96.072949 -0.000002 102.925425 -0.000025 -37.307508 -22.877773 -23.517315 10.109857 -3.996504 12.602523 21.107672 -18.448812 -18.057888 0.250521 -49.810148 -31.665228 -0.000004 0.000002 -0.000000 -0.430338 0.275237 9.387078 0.745360 -2.529212 32.835824 0.615699 -2.316184 29.769458 0.000000 -0.000000 -0.000001 4.136913 -7.528976 55.498217 6.272751 -4.368528 110.318750 0.248709 -1.503053 18.790149 -0.000001 -0.000000 -0.000001 -3.545561 -2.702476 58.640036 5.460653 -4.587489 99.945475 1.689404 -3.590704 50.382221 0.000000 0.000000 0.000001 -4.197785 -3.349505 65.550432 4.159863 -4.630595 83.863433 2.403983 -4.076885 61.038894 -0.000001 -0.000000 0.000002 -84.840355 -22.873969 21.889858 107.101697 -10.866641 0.850719 15.432964 -3.816804 -17.468728 1.070440 -0.005668 0.482921 -0.000000 0.000001 0.000000 34.835737 8.576622 -104.213913 24.032784 58.270413 113.396071 -28.229457 17.293655 -11.961111 -29.852243 -0.000025 -0.000014 -0.000000 -0.000004 -0.000000 
